# xmcd
#
# Track frame offsets:
#	150
#	14491
#	34709
#	52298
#	68494
#	90059
#	112313
#	132395
#	150094
#	164535
#	195345
#
# Disc length: 3009 seconds
# Revision: 0
# Processed by: cddbd v1.5.2PL0 Copyright (c) Steve Scherf et al.
# Submitted via: dBpowerAMP V12.0
#
DISCID=870bbf0b
DTITLE=The Sultans - Desert Post
DYEAR=1999
DGENRE=Blues
TTITLE0=Lonesome Jailhouse Blues
TTITLE1=When I was a Cowboy
TTITLE2=I Saw the Light
TTITLE3=Down Yonder
TTITLE4=The Backstreeets of Love
TTITLE5=Sailing Shoes
TTITLE6=Sweet Lolita
TTITLE7=Diddy wah Diddy
TTITLE8=Dixie Hoedown
TTITLE9=Saved
TTITLE10=Drop Down Mama
EXTD=
EXTT0=
EXTT1=
EXTT2=
EXTT3=
EXTT4=
EXTT5=
EXTT6=
EXTT7=
EXTT8=
EXTT9=
EXTT10=
PLAYORDER=
